custom-analysis
version=1
nRows=18
nColumns=38
inDegrees=no

This file contains tibia displacement and acting force.

Units are S.I. units (seconds, meters, Newtons, ...)
Angles are in degrees.

endheader
time	APT	SIT	knee_angle	aACL_R_force	pACL_R_force	aPCL_R_force	pPCL_R_force	aMCL_R_force	aLCL_R_force	aPCL_L_force	pPCL_L_force	aMCL_L_force	aLCL_L_force	aACL_R_length	pACL_R_length	aPCL_R_length	pPCL_R_length	aMCL_R_length	aLCL_R_length	aPCL_L_length	pPCL_L_length	aMCL_L_length	aLCL_L_length	aACL_R_strain	pACL_R_strain	aPCL_R_strain	pPCL_R_strain	aMCL_R_strain	aLCL_R_strain	aPCL_L_strain	pPCL_L_strain	aMCL_L_strain	aLCL_L_strain	femur_lat_meniscii_force_r	femur_med_meniscii_force_r	femur_lat_tibia_force_r	femur_med_tibia_force_r
      0.01307924	      0.00022492	      0.00696009	      1.66881517	     73.24666745	     10.26360775	      0.00000000	      0.00000000	      0.00000000	   -387.18953750	      0.00000000	    -82.50471181	    -32.01207784	    -35.92843783	      0.03363492	      0.02496728	      0.02205413	      0.02340408	      0.06783499	      0.05426782	      0.02075700	      0.02487390	      0.07621728	      0.05403858	      0.06215527	      0.03773462	     -0.17650542	     -0.04817662	     -0.07940755	      0.02218914	     -0.22493988	      0.01159962	      0.03434910	      0.01787110	      0.00000000	      0.00000000	      0.00000000	      0.00000000
      0.01454817	      0.00059218	      0.00768621	      1.71423183	     87.53945283	     18.70592491	      0.00000000	      0.00000000	      0.00000000	   -390.96585140	      0.00000000	    -54.26220046	    -35.39382134	    -47.46440959	      0.03374875	      0.02495482	      0.02187141	      0.02349142	      0.06732394	      0.05358562	      0.02067503	      0.02476477	      0.07609760	      0.05391301	      0.06574986	      0.03721677	     -0.18332846	     -0.04462467	     -0.08634294	      0.00933924	     -0.22800081	      0.00716148	      0.03272489	      0.01550589	      0.00000000	      0.00000000	      0.00000000	      0.00000000
      0.01558139	      0.00082703	      0.00819374	      1.75027644	     92.90952939	     20.36433117	      0.00000000	      0.00000000	      0.00000000	   -378.95279143	      0.00000000	    -38.61228110	    -35.93973981	    -52.98089357	      0.03384048	      0.02495796	      0.02187281	      0.02365124	      0.06697178	      0.05314586	      0.02062165	      0.02471326	      0.07601385	      0.05382469	      0.06864678	      0.03734726	     -0.18327592	     -0.03812473	     -0.09112213	      0.00105574	     -0.22999385	      0.00506675	      0.03158828	      0.01384230	      0.00000000	      0.00000000	      0.00000000	      0.00000000
      0.01573415	      0.00085987	      0.00826926	      1.75589305	     92.47093006	     19.62495841	      0.00000000	      0.00000000	      0.00000000	      0.00000000	      0.00000000	    -36.52918177	    -35.91412381	    -53.66921328	      0.03385411	      0.02495863	      0.02188199	      0.02368111	      0.06691942	      0.05308285	      0.02061386	      0.02470709	      0.07600162	      0.05381173	      0.06907727	      0.03737529	     -0.18293306	     -0.03691007	     -0.09183270	     -0.00013112	     -0.23028464	      0.00481555	      0.03142234	      0.01359813	      0.00000000	      0.00000000	      0.00000000	      0.00000000
      0.01588690	      0.00089183	      0.00834625	      1.76160067	     87.39993212	     15.19664322	      0.00000000	      0.00000000	      0.00000000	      0.00000000	      0.00000000	    -34.19153160	    -35.72029666	    -54.33645754	      0.03386623	      0.02495816	      0.02189206	      0.02371050	      0.06686530	      0.05301839	      0.02060612	      0.02470128	      0.07598947	      0.05379880	      0.06945974	      0.03735571	     -0.18255736	     -0.03571488	     -0.09256727	     -0.00134527	     -0.23057385	      0.00457955	      0.03125743	      0.01335454	      0.00000000	      0.00000000	      0.00000000	      0.00000000
      0.01665068	      0.00103929	      0.00876204	      1.79185122	     66.72931311	     -1.24798571	      0.00000000	      0.00000000	      0.00000000	      0.00000000	      0.00000000	    -24.04094542	    -34.79491103	    -57.48696893	      0.03389815	      0.02493544	      0.02194234	      0.02383620	      0.06655802	      0.05266117	      0.02056796	      0.02467759	      0.07593002	      0.05373457	      0.07046778	      0.03641135	     -0.18067984	     -0.03060279	     -0.09673730	     -0.00807384	     -0.23199872	      0.00361613	      0.03045065	      0.01214482	      0.00000000	      0.00000000	      0.00000000	      0.00000000
      0.01917416	      0.00146683	      0.01046969	      1.91627793	     34.03345862	    -10.35705438	      0.00000000	      0.00000000	      0.00000000	      0.00000000	      0.00000000	     -5.51234681	    -32.75235463	    -65.87052146	      0.03381707	      0.02477880	      0.02207250	      0.02406018	      0.06518139	      0.05111288	      0.02043732	      0.02464202	      0.07574694	      0.05352648	      0.06790749	      0.02990087	     -0.17581949	     -0.02149338	     -0.11541969	     -0.03723745	     -0.23687663	      0.00216920	      0.02796598	      0.00822518	      0.00000000	      0.00000000	      0.00000000	      0.00000000
      0.02114080	      0.00177801	      0.01210115	      2.03896988	     22.93518680	      3.99565449	      0.00000000	      0.00000000	      0.00000000	      0.00000000	      0.00000000	     -1.23036486	    -31.92856715	    -70.04982503	      0.03368733	      0.02470805	      0.02218260	      0.02413746	      0.06381261	      0.04958839	      0.02031868	      0.02463647	      0.07561551	      0.05336760	      0.06381043	      0.02696008	     -0.17170850	     -0.01835083	     -0.13399541	     -0.06595261	     -0.24130681	      0.00194361	      0.02618238	      0.00523249	      0.00000000	      0.00000000	      0.00000000	      0.00000000
      0.02289051	      0.00202043	      0.01373509	      2.16376214	     14.89006867	     21.69610878	      0.00000000	      0.00000000	      0.00000000	      0.00000000	      0.00000000	      0.45015255	    -30.89934261	    -71.78554047	      0.03355811	      0.02472042	      0.02236490	      0.02420866	      0.06242034	      0.04804435	      0.02019579	      0.02463578	      0.07550504	      0.05322797	      0.05972981	      0.02747421	     -0.16490151	     -0.01545487	     -0.15289002	     -0.09503632	     -0.24589557	      0.00191560	      0.02468320	      0.00260251	      0.00000000	      0.00000000	      0.00000000	      0.00000000
      0.02440738	      0.00218249	      0.01526941	      2.28136465	      6.14257249	     37.31990498	      0.00000000	      0.00000000	      0.00000000	      0.00000000	      0.00000000	      0.72053596	    -30.20478858	    -72.27701048	      0.03343696	      0.02478968	      0.02263456	      0.02430756	      0.06109647	      0.04658389	      0.02007620	      0.02463632	      0.07541410	      0.05310793	      0.05590387	      0.03035281	     -0.15483252	     -0.01143302	     -0.17085636	     -0.12254547	     -0.25036094	      0.00193759	      0.02344900	      0.00034139	      0.00000000	      0.00000000	      0.00000000	      0.00000000
      0.02482912	      0.00221697	      0.01571359	      2.31534066	      3.63059501	     41.90749097	      0.00000000	      0.00000000	      0.00000000	      0.00000000	      0.00000000	     -0.35651318	    -30.95369166	      0.00000000	      0.03340094	      0.02481774	      0.02273217	      0.02434400	      0.06070992	      0.04615920	      0.02004088	      0.02463657	      0.07538956	      0.05307464	      0.05476657	      0.03151905	     -0.15118775	     -0.00995088	     -0.17610221	     -0.13054504	     -0.25167966	      0.00194764	      0.02311599	     -0.00028571	      0.00000000	      0.00000000	      0.00000000	      0.00000000
      0.02535081	      0.00225242	      0.01627280	      2.35805188	      0.37139743	     47.64293179	      0.00000000	      0.00000000	      0.00000000	      0.00000000	      0.00000000	     -6.42331446	    -36.37473691	      0.00000000	      0.03335490	      0.02485757	      0.02286814	      0.02439578	      0.06022118	      0.04562344	      0.01999357	      0.02463455	      0.07535690	      0.05303031	      0.05331267	      0.03317467	     -0.14611061	     -0.00784497	     -0.18273491	     -0.14063661	     -0.25344615	      0.00186568	      0.02267274	     -0.00112059	      0.00000000	      0.00000000	      0.00000000	      0.00000000
      0.02655434	      0.00230058	      0.01760134	      2.45907730	     -7.69790654	     61.41572617	      0.00000000	      0.00000000	      0.00000000	      0.00000000	      0.00000000	    -14.57577234	    -45.04285300	      0.00000000	      0.03324149	      0.02496997	      0.02325023	      0.02454700	      0.05905011	      0.04434589	      0.01986690	      0.02462042	      0.07527074	      0.05291211	      0.04973137	      0.03784656	     -0.13184343	     -0.00169505	     -0.19862759	     -0.16470054	     -0.25817609	      0.00129082	      0.02150344	     -0.00334703	      0.00000000	      0.00000000	      0.00000000	      0.00000000
      0.02680819	      0.00230425	      0.01788799	      2.48076169	     -9.51467527	     64.42078861	      0.00000000	      0.00000000	      0.00000000	      0.00000000	      0.00000000	    -15.51854008	    -46.32270758	      0.00000000	      0.03321615	      0.02499716	      0.02334356	      0.02458506	      0.05879550	      0.04406938	      0.01983734	      0.02461638	      0.07525121	      0.05288480	      0.04893110	      0.03897669	     -0.12835853	     -0.00014698	     -0.20208296	     -0.16990882	     -0.25927970	      0.00112639	      0.02123840	     -0.00386157	      0.00000000	      0.00000000	      0.00000000	      0.00000000
      0.02694696	      0.00230506	      0.01804561	      2.49265560	    -13.81796204	     63.63310864	      0.00000000	    134.38322987	      0.00000000	      0.00000000	      0.00000000	    -15.61944456	    -46.77232500	      0.00000000	      0.03320160	      0.02501218	      0.02339565	      0.02460585	      0.05865487	      0.04391682	      0.01982081	      0.02461409	      0.07524040	      0.05286956	      0.04847168	      0.03960084	     -0.12641355	      0.00069836	     -0.20399138	     -0.17278249	     -0.25989695	      0.00103334	      0.02109177	     -0.00414850	      0.00000000	      0.00000000	      0.00000000	      0.00000000
      0.02708573	      0.00230463	      0.01820391	      2.50456312	    -18.14209924	     62.94214612	      0.00000000	    121.29598765	      0.00000000	      0.00000000	      0.00000000	    -15.66377347	    -47.17658912	      0.00000000	      0.03318559	      0.02502662	      0.02344664	      0.02462451	      0.05851252	      0.04376237	      0.01980405	      0.02461180	      0.07522955	      0.05285414	      0.04796614	      0.04020099	     -0.12450969	      0.00145743	     -0.20592330	     -0.17569161	     -0.26052271	      0.00094012	      0.02094445	     -0.00443908	      0.00000000	      0.00000000	      0.00000000	      0.00000000
      0.02777956	      0.00228746	      0.01900500	      2.56444732	    -33.06757825	     65.67254485	      0.00000000	     81.58101082	      0.00000000	      0.00000000	      0.00000000	    -15.85661218	    -49.00183116	      0.00000000	      0.03309080	      0.02509618	      0.02369257	      0.02469633	      0.05777907	      0.04296649	      0.01971678	      0.02460024	      0.07517457	      0.05277421	      0.04497248	      0.04309232	     -0.11532669	      0.00437819	     -0.21587693	     -0.19068286	     -0.26378150	      0.00047038	      0.02019836	     -0.00594451	      0.00000000	      0.00000000	      0.00000000	      0.00000000
      0.02871624	      0.00223220	      0.02010910	      2.64643100	    -44.99609641	     77.20490618	      0.00000000	     63.06419924	      0.00000000	      0.00000000	      0.00000000	      0.00000000	    -51.31696250	      0.00000000	      0.03294169	      0.02519783	      0.02402232	      0.02476461	      0.05674294	      0.04184196	      0.01958979	      0.02458466	      0.07509902	      0.05265956	      0.04026401	      0.04731703	     -0.10301411	      0.00715496	     -0.22993830	     -0.21186452	     -0.26852340	     -0.00016345	      0.01917304	     -0.00810418	      0.00000000	      0.00000000	      0.00000000	      0.00000000
